<?xml version="1.0" standalone="no"?>
<!DOCTYPE svg PUBLIC "-//W3C//DTD SVG 20010904//EN"
 "http://www.w3.org/TR/2001/REC-SVG-20010904/DTD/svg10.dtd">
<svg version="1.0" xmlns="http://www.w3.org/2000/svg"
 width="262.000000pt" height="262.000000pt" viewBox="0 0 262.000000 262.000000"
 preserveAspectRatio="xMidYMid meet">
<metadata>
Created by potrace 1.14, written by Peter Selinger 2001-2017
</metadata>
<g transform="translate(0.000000,262.000000) scale(0.100000,-0.100000)"
fill="#000000" stroke="none">
<path d="M1294 2296 c-6 -6 -89 -85 -184 -176 -95 -91 -201 -191 -234 -223
-84 -80 -274 -259 -314 -294 -31 -28 -32 -30 -14 -49 11 -10 114 -111 231
-223 l212 -205 -98 -98 c-54 -54 -104 -98 -111 -98 -7 0 -61 47 -120 104 -247
241 -337 326 -345 326 -4 0 -49 -40 -100 -89 -51 -49 -121 -117 -157 -150
l-65 -61 100 -96 c116 -112 493 -476 602 -581 41 -40 79 -73 84 -73 6 0 27 17
48 37 149 147 474 459 480 461 9 3 24 -12 320 -298 111 -107 208 -195 216
-195 7 0 111 94 230 210 120 116 248 239 284 274 178 172 251 244 251 250 0 3
-68 75 -150 159 -103 107 -153 152 -162 146 -7 -4 -55 -49 -107 -98 -51 -50
-132 -129 -180 -174 -47 -46 -104 -101 -126 -123 l-41 -39 -103 99 c-73 70
-101 103 -95 112 7 13 120 123 369 363 l80 77 -81 77 c-45 42 -114 108 -155
146 -73 68 -337 318 -409 386 -132 125 -141 132 -156 116z"/>
</g>
</svg>
